<?xml version="1.0" encoding="utf-8"?>
<!-- Generator: Adobe Illustrator 25.2.0, SVG Export Plug-In . SVG Version: 6.00 Build 0)  -->
<svg version="1.1" xmlns="http://www.w3.org/2000/svg" xmlns:xlink="http://www.w3.org/1999/xlink" x="0px" y="0px"
	 viewBox="0 0 23.8 23.8" style="enable-background:new 0 0 23.8 23.8;" xml:space="preserve">
<style type="text/css">
	.st0{display:none;}
	.st1{display:inline;opacity:0.4;fill:#7D7670;}
	.st2{display:inline;opacity:0.4;fill:#70707D;}
	.st3{display:inline;opacity:0.4;fill:#FF716B;}
	.st4{display:inline;opacity:0.4;fill:#99998A;}
	.st5{fill:#E5E3E3;}
	.st6{fill:#FFFFFF;}
	.st7{fill:#36AADD;}
	.st8{fill:#E6E6E6;}
	.st9{fill:#4D4D4D;}
	.st10{fill:#EAEAEA;}
	.st11{fill:#848484;}
	.st12{fill:#FFFFFF;stroke:#E6E6E6;stroke-miterlimit:10;}
	.st13{fill:#999999;}
	.st14{fill:#96A82A;}
	.st15{fill:#BBD550;}
	.st16{fill:#29ABE2;}
	.st17{fill:#7C7C7C;}
	.st18{fill:#212121;}
	.st19{fill:#C6C6C6;}
</style>
<g id="Container_Zones" class="st0">
</g>
<g id="Padding_Zones" class="st0">
</g>
<g id="Page_Margins" class="st0">
</g>
<g id="Containers_Grid" class="st0">
</g>
<g id="Padding_Grid" class="st0">
</g>
<g id="bg">
</g>
<g id="diseño">
	<path class="st6" d="M23.8,11.9C23.8,5.3,18.4,0,11.9,0C5.3,0,0,5.3,0,11.9s5.3,11.9,11.9,11.9c0.1,0,0.1,0,0.2,0v-9.2H9.5v-3h2.6
		V9.3c0-2.5,1.5-3.9,3.8-3.9c1.1,0,2,0.1,2.3,0.1v2.7h-1.6c-1.2,0-1.5,0.6-1.5,1.4v1.9h2.9l-0.4,3h-2.6v8.8
		C20.1,21.9,23.8,17.3,23.8,11.9z"/>
</g>
</svg>
